<?xml version="1.0" standalone="no"?>
<!DOCTYPE svg PUBLIC "-//W3C//DTD SVG 20010904//EN"
 "http://www.w3.org/TR/2001/REC-SVG-20010904/DTD/svg10.dtd">
<svg version="1.0" xmlns="http://www.w3.org/2000/svg"
 width="328.000000pt" height="328.000000pt" viewBox="0 0 328.000000 328.000000"
 preserveAspectRatio="xMidYMid meet">
<metadata>
Created by potrace 1.11, written by Peter Selinger 2001-2013
</metadata>
<g transform="translate(0.000000,328.000000) scale(0.100000,-0.100000)"
fill="#000000" stroke="none">
<path d="M1580 3173 c0 -4 -21 -8 -46 -9 -25 0 -49 -5 -52 -10 -4 -6 -24 -10
-45 -9 -21 1 -42 -4 -48 -11 -6 -7 -16 -11 -23 -8 -7 3 -26 -6 -42 -19 -36
-29 -59 -39 -103 -44 -19 -2 -41 -9 -50 -16 -12 -9 -13 -9 -7 1 4 6 2 12 -3
12 -6 0 -11 -4 -11 -10 0 -5 -13 -10 -29 -10 -16 0 -31 -4 -33 -10 -1 -5 -17
-10 -35 -12 -17 -1 -31 -7 -30 -13 1 -5 -6 -9 -16 -7 -9 2 -20 -4 -23 -12 -3
-9 -9 -14 -13 -12 -8 5 -100 -92 -93 -99 3 -3 0 -5 -7 -5 -17 0 -41 -25 -41
-43 0 -8 -11 -26 -25 -41 -14 -15 -25 -24 -25 -20 0 4 -10 -2 -23 -14 -13 -12
-27 -19 -31 -15 -4 4 -4 0 -1 -9 4 -9 14 -18 24 -21 14 -3 16 -12 13 -41 -2
-20 -8 -36 -13 -36 -5 0 -6 -6 -3 -14 3 -7 -15 -35 -40 -62 -49 -53 -59 -84
-25 -84 11 0 17 5 14 10 -3 6 -1 10 5 10 6 0 8 6 4 13 -4 6 -4 9 1 5 4 -4 14
0 21 10 12 16 13 15 14 -5 0 -13 -3 -23 -7 -23 -9 0 -33 -49 -33 -67 0 -7 7
-13 15 -13 8 0 15 5 15 12 0 6 3 8 7 5 3 -4 -1 -15 -10 -24 -8 -10 -20 -30
-26 -46 -9 -24 -8 -27 9 -27 11 0 20 6 20 14 0 16 18 31 27 22 3 -3 -2 -18
-12 -33 -20 -30 -29 -93 -13 -93 5 0 12 9 15 20 3 11 9 17 14 15 4 -3 4 -16 0
-28 -6 -16 -4 -25 8 -34 14 -10 14 -14 2 -25 -11 -10 -14 -10 -18 0 -3 6 -11
12 -19 12 -8 0 -14 6 -14 13 0 7 -3 8 -8 2 -4 -5 -16 -12 -27 -13 -11 -2 -24
-5 -30 -5 -13 -3 -55 -44 -55 -55 0 -6 -7 -13 -15 -16 -12 -4 -13 -11 -7 -23
5 -10 7 -24 4 -32 -2 -8 0 -11 5 -8 5 3 10 0 10 -8 0 -8 -5 -11 -10 -8 -6 4
-7 1 -1 -8 11 -18 12 -169 1 -169 -4 0 -6 -4 -3 -8 2 -4 7 -30 10 -57 6 -50
41 -134 58 -136 4 -1 12 -2 17 -3 5 0 13 -4 17 -8 11 -12 132 -9 139 2 4 6 1
9 -7 8 -7 -2 -12 3 -11 10 4 16 -24 16 -30 0 -4 -10 -6 -10 -6 0 -1 6 -6 12
-12 12 -5 0 -7 -6 -3 -12 6 -10 5 -10 -8 -1 -8 7 -27 14 -42 15 -14 1 -26 6
-26 11 0 4 -4 5 -10 2 -6 -3 -10 3 -10 15 0 12 -5 18 -10 15 -6 -3 -10 4 -10
17 0 13 -6 30 -12 37 -11 11 -10 12 2 6 13 -8 13 -7 1 8 -11 14 -11 20 0 34
10 11 10 14 1 9 -6 -4 -12 -2 -12 3 0 6 6 11 13 11 8 0 8 3 -2 9 -13 8 -13 12
0 27 9 11 9 15 2 10 -8 -4 -13 -1 -13 9 0 9 4 14 9 11 10 -6 6 37 -5 56 -4 7
2 4 14 -6 12 -11 22 -15 22 -11 0 5 4 5 9 0 6 -6 11 -32 12 -58 2 -27 6 -50
11 -53 4 -3 3 -14 -3 -26 -8 -15 -8 -19 0 -14 7 5 11 -2 11 -17 0 -14 7 -28
16 -31 9 -3 14 -12 11 -20 -4 -9 2 -12 16 -11 12 1 23 3 25 4 1 0 -4 14 -12
30 -9 16 -12 32 -8 36 4 5 1 5 -5 1 -7 -4 -13 -4 -14 1 -1 4 -2 20 -3 34 -2
14 -6 31 -10 37 -4 7 -2 12 6 12 8 0 9 3 3 8 -14 10 -14 82 -1 84 47 6 57 -1
50 -39 -3 -13 1 -33 7 -44 9 -17 8 -20 -2 -14 -8 5 -10 4 -5 -4 4 -6 10 -24
12 -39 3 -15 9 -31 15 -37 5 -5 9 -19 9 -32 0 -13 5 -23 10 -23 6 0 10 -14 10
-31 0 -17 4 -28 10 -24 6 4 10 -8 10 -29 0 -20 -4 -36 -10 -36 -14 0 -12 -33
3 -49 9 -11 9 -13 0 -7 -17 9 -17 -16 0 -33 10 -11 9 -12 -1 -6 -11 6 -12 3
-3 -13 8 -15 8 -22 -2 -25 -9 -4 -9 -6 1 -6 6 -1 12 -10 12 -22 0 -11 3 -18 8
-16 4 2 23 -15 42 -39 19 -23 39 -43 43 -43 5 -1 22 -15 37 -31 16 -17 31 -30
34 -28 2 2 16 -7 30 -19 15 -13 29 -23 32 -23 2 0 16 -11 29 -24 14 -14 32
-29 41 -34 22 -12 27 -88 7 -108 -8 -8 -12 -14 -8 -14 4 0 0 -6 -7 -13 -7 -7
-15 -13 -18 -13 -3 0 -23 -16 -44 -36 -21 -20 -52 -42 -67 -49 -16 -6 -29 -15
-29 -19 0 -3 -6 -7 -13 -7 -14 0 -149 -63 -157 -74 -3 -3 -22 -12 -42 -19 -56
-20 -89 -53 -90 -90 -1 -17 -5 -33 -10 -36 -12 -8 -10 -134 3 -134 5 0 7 5 4
10 -3 6 -1 10 5 10 7 0 32 18 57 40 25 22 52 40 60 40 8 0 11 5 8 10 -3 6 0
10 8 10 8 0 27 6 42 14 15 8 34 12 43 9 10 -4 13 -2 8 5 -5 8 2 13 21 14 95 5
131 3 156 -9 15 -8 27 -11 27 -7 0 4 7 1 15 -6 8 -7 15 -9 15 -5 0 4 6 2 14
-4 10 -9 13 -39 10 -134 -1 -67 -5 -133 -8 -147 -2 -14 -7 -43 -11 -65 -3 -22
-10 -42 -16 -43 -11 -5 31 -39 51 -42 32 -5 50 1 50 16 0 8 4 13 9 10 4 -3 13
6 19 19 7 14 16 25 22 25 5 0 10 6 10 13 0 7 14 21 30 30 17 10 30 22 30 28 0
5 9 9 20 9 11 0 20 5 20 10 0 6 5 10 12 10 6 0 49 18 94 41 112 54 170 56 269
8 39 -18 80 -44 93 -56 13 -13 29 -20 35 -17 7 4 9 4 5 -1 -4 -4 16 -29 43
-56 28 -27 47 -53 44 -59 -3 -5 -1 -10 5 -10 6 0 18 -7 26 -15 9 -9 11 -15 4
-15 -6 0 0 -11 14 -25 14 -14 28 -25 31 -25 3 0 5 70 4 155 0 91 -4 153 -10
149 -5 -3 -9 4 -9 14 0 26 -41 102 -54 102 -6 0 -4 5 4 10 10 6 11 10 3 10 -7
0 -13 7 -13 16 0 8 -4 12 -10 9 -9 -6 -14 8 -11 28 1 5 -3 6 -9 2 -5 -3 -10
-2 -10 2 0 10 -61 108 -90 143 -11 14 -20 31 -20 38 0 6 -4 12 -10 12 -15 0
-11 42 5 64 8 11 15 16 16 10 0 -5 4 1 9 14 5 12 16 22 24 22 8 0 18 9 21 20
3 11 13 20 21 20 8 0 13 4 10 9 -3 5 8 14 24 21 17 7 30 17 30 23 0 6 3 7 6 4
4 -4 19 2 33 12 30 20 62 35 74 33 4 -1 7 4 7 12 0 9 7 13 20 11 11 -2 20 0
20 5 0 12 77 50 86 42 4 -4 4 -1 0 6 -5 8 0 12 12 12 19 0 54 30 36 30 -5 0
-3 4 4 8 7 5 14 23 15 40 1 18 5 32 9 32 4 0 5 7 2 15 -4 8 -2 15 3 15 6 0 9
16 8 35 -1 19 3 35 7 35 5 0 6 4 3 10 -3 5 0 10 7 10 9 0 9 3 -2 10 -9 6 -11
10 -3 10 7 0 10 6 7 14 -7 19 12 29 61 32 22 1 40 3 40 4 0 3 38 10 85 15 49
6 95 46 106 92 4 13 11 20 18 16 6 -3 8 -3 4 2 -4 4 2 23 13 42 11 18 17 33
12 33 -4 0 -1 5 7 10 8 5 15 13 16 17 1 18 28 63 37 63 6 0 8 3 5 6 -4 3 5 22
18 41 13 20 24 42 24 49 0 8 5 14 10 14 6 0 10 9 10 19 0 19 14 22 38 7 18
-11 19 -8 23 49 2 28 9 53 14 57 6 4 2 8 -7 8 -10 0 -18 5 -18 10 0 6 -7 10
-15 10 -8 0 -15 5 -15 11 0 5 -4 8 -9 5 -5 -4 -11 -2 -13 4 -1 5 -15 11 -30
12 -16 1 -28 5 -28 8 0 9 -63 13 -197 13 -107 -1 -123 1 -123 16 0 14 -2 14
-10 1 -5 -8 -10 -10 -10 -4 0 5 4 14 10 20 5 5 11 29 12 52 1 22 5 39 10 36
12 -8 5 19 -7 28 -6 5 -5 8 3 8 7 0 12 14 12 35 0 35 -20 49 -36 23 -5 -7 -3
-8 7 -3 11 7 12 6 2 -6 -7 -8 -14 -31 -16 -50 -2 -19 -7 -40 -11 -47 -4 -7 -4
-16 -1 -22 4 -6 -6 -10 -22 -10 -17 0 -23 3 -16 8 9 6 7 11 -7 20 -14 8 -20 9
-20 1 0 -6 -6 -9 -12 -6 -7 2 -13 17 -13 33 0 47 -27 40 -84 -22 -29 -31 -55
-54 -58 -50 -3 3 8 19 26 35 17 16 31 39 31 52 0 21 -1 21 -18 6 -20 -19 -37
-23 -27 -7 3 6 -1 7 -9 4 -9 -3 -16 -1 -16 5 0 6 -5 11 -11 11 -5 0 -8 -4 -4
-9 3 -5 -4 -12 -15 -16 -11 -4 -18 -10 -16 -14 3 -4 -5 -8 -17 -8 -17 -2 -19
0 -7 7 12 8 10 10 -7 10 -13 0 -23 -4 -23 -10 0 -5 -13 -10 -28 -10 -24 0 -32
-7 -47 -40 -12 -26 -25 -40 -37 -40 -12 0 -18 -7 -18 -24 0 -13 -5 -26 -11
-28 -5 -2 -11 -19 -12 -39 -1 -20 -6 -36 -12 -36 -5 0 -52 -1 -102 -1 l-93 -2
0 -30 0 -31 78 4 c66 3 95 9 123 23 3 2 1 -12 -5 -31 -10 -33 -26 -48 -26 -25
0 6 -4 10 -10 10 -15 0 -13 -133 3 -149 10 -11 9 -12 -1 -6 -11 6 -12 3 -3
-13 6 -11 11 -30 11 -41 0 -12 5 -21 10 -21 6 0 10 -11 10 -25 0 -14 4 -25 9
-25 5 0 12 -8 15 -17 8 -25 61 -83 75 -83 6 0 11 -3 11 -8 0 -7 46 -30 65 -33
6 0 19 -6 30 -12 11 -6 65 -12 119 -14 59 -1 104 -7 110 -14 8 -9 8 -10 -1 -5
-10 5 -13 -6 -13 -43 0 -27 -4 -52 -8 -55 -4 -2 -9 -19 -10 -37 -1 -18 -8 -39
-15 -48 -10 -12 -9 -13 1 -7 11 7 11 4 0 -15 -17 -31 -39 -48 -60 -49 -9 0
-18 -3 -20 -7 -1 -5 -23 -18 -48 -31 -76 -40 -125 -67 -130 -73 -3 -3 -20 -11
-37 -18 -18 -8 -33 -18 -33 -23 0 -5 -3 -7 -7 -5 -5 2 -36 -25 -71 -59 -34
-35 -59 -64 -55 -64 5 0 -4 -8 -20 -18 -15 -10 -24 -22 -20 -25 3 -4 0 -7 -8
-8 -8 0 -23 -2 -34 -5 -11 -2 -39 -5 -62 -6 -24 -2 -43 -6 -43 -10 0 -4 -8 -5
-18 -3 -10 2 -37 0 -60 -5 -41 -7 -45 -6 -87 35 -24 24 -41 46 -38 49 4 3 -1
6 -10 6 -9 0 -17 4 -17 9 0 10 -67 78 -99 101 -12 8 -21 20 -21 28 0 7 -5 10
-10 7 -5 -3 -10 -1 -10 5 0 6 -3 9 -7 7 -10 -4 -53 40 -45 47 3 3 -1 6 -9 6
-8 0 -21 9 -29 20 -8 11 -18 20 -23 20 -5 0 -14 6 -21 13 -7 6 -25 21 -41 32
-15 11 -40 30 -55 42 -15 12 -30 20 -34 16 -3 -3 -6 0 -6 9 0 8 -11 21 -25 28
-13 7 -22 17 -19 22 3 4 -3 8 -12 8 -10 0 -15 3 -11 6 3 3 -5 16 -19 29 -21
19 -25 31 -23 69 2 38 5 44 17 33 16 -13 162 -17 162 -4 0 4 9 3 20 -3 14 -8
20 -8 20 0 0 6 4 9 8 6 4 -2 14 -1 21 3 7 5 30 5 52 1 21 -4 39 -5 39 -1 0 3
41 7 91 8 50 1 96 6 101 11 6 6 17 8 25 5 15 -6 53 28 53 47 0 6 5 8 12 4 6
-4 8 -3 4 4 -3 6 -1 16 6 24 7 7 14 20 16 28 2 8 9 22 16 30 15 18 56 106 56
120 0 5 5 10 10 10 6 0 10 14 10 31 0 16 3 28 8 26 4 -3 8 13 10 36 1 23 6 44
11 47 4 3 8 41 9 84 1 45 8 86 15 95 6 8 7 12 2 9 -6 -4 -17 -3 -25 2 -13 8
-13 13 -2 31 8 11 9 18 3 14 -6 -3 -11 -3 -11 2 0 4 -14 16 -30 25 -29 17 -31
17 -36 0 -3 -9 -10 -25 -15 -34 -5 -10 -9 -30 -9 -45 0 -14 -3 -23 -7 -19 -11
10 -11 65 0 63 17 -3 18 49 2 63 -12 10 -15 10 -15 -3 0 -8 -6 -17 -12 -20 -8
-3 -13 -22 -12 -50 0 -25 -3 -44 -8 -41 -5 4 -9 0 -7 -7 3 -24 -1 -39 -9 -39
-4 0 -8 11 -8 25 0 14 3 25 6 25 4 0 7 6 8 13 1 6 3 23 5 37 1 14 5 30 8 35
12 21 4 60 -11 56 -8 -2 -23 -5 -33 -6 -16 -1 -47 -43 -46 -62 0 -4 -4 -9 -10
-11 -5 -2 -9 6 -8 17 0 11 4 18 8 15 4 -2 10 -1 13 4 2 4 -16 14 -41 21 -36
11 -47 11 -53 1 -6 -10 -9 -9 -13 1 -4 11 -6 11 -6 1 -1 -7 -5 -10 -11 -7 -9
6 -15 -34 -12 -77 1 -9 -5 -19 -14 -22 -10 -4 -13 -2 -8 6 10 16 5 100 -6 112
-7 7 -37 -33 -32 -41 9 -13 -3 -23 -25 -24 -16 0 -22 -3 -16 -6 8 -3 10 -11 5
-21 -4 -9 -8 -34 -7 -54 0 -21 -2 -39 -5 -39 -3 -1 -27 -3 -54 -5 -26 -2 -54
-8 -60 -14 -7 -5 -16 -7 -20 -3 -9 10 -36 13 -36 4 0 -3 -26 -7 -57 -9 -31 -1
-59 -5 -61 -7 -3 -3 -11 0 -17 5 -14 11 -8 63 6 54 5 -3 9 0 9 7 0 6 11 22 26
35 14 13 21 24 17 24 -4 0 -2 4 6 9 18 12 23 41 8 41 -19 -1 -47 -26 -39 -35
4 -5 1 -5 -5 -1 -8 5 -13 1 -13 -9 0 -11 -5 -15 -14 -12 -10 4 -13 1 -9 -9 3
-7 0 -14 -6 -14 -22 0 -10 29 25 64 20 20 34 39 31 42 -3 4 7 18 22 33 35 32
50 71 27 71 -9 0 -13 7 -11 20 3 15 -2 20 -16 20 -11 0 -17 -4 -14 -10 3 -5
-2 -10 -11 -10 -10 0 -14 -3 -11 -6 4 -4 -1 -14 -11 -23 -10 -9 -28 -29 -40
-45 -15 -20 -22 -24 -22 -12 0 9 5 16 10 16 6 0 10 7 10 15 0 8 5 15 10 15 6
0 10 7 10 16 0 8 4 12 10 9 5 -3 10 1 10 9 0 9 5 16 10 16 6 0 10 6 10 14 0 8
6 16 12 18 9 3 8 10 -5 23 -18 17 -18 17 -24 -4 -3 -11 -9 -18 -14 -15 -5 3
-9 -1 -9 -8 0 -8 -9 -20 -20 -28 -11 -8 -20 -20 -20 -27 0 -7 -4 -13 -10 -13
-15 0 -12 26 5 40 8 7 12 17 8 23 -3 6 -1 7 5 3 7 -4 12 -2 12 3 0 6 16 27 35
47 19 20 32 41 28 46 -3 7 -1 8 5 4 7 -4 12 -2 12 4 0 6 6 8 13 4 6 -4 9 -4 5
0 -3 4 5 24 19 44 21 31 22 37 9 40 -20 4 -106 -85 -106 -108 0 -6 -7 -10 -16
-10 -8 0 -13 -4 -10 -9 3 -4 -3 -16 -14 -26 -12 -10 -20 -13 -20 -7 0 7 5 12
10 12 6 0 10 7 10 15 0 8 18 34 40 56 37 38 54 69 30 54 -5 -3 -10 -1 -10 5 0
6 -4 8 -10 5 -5 -3 -10 -3 -10 2 0 4 16 18 35 31 19 12 35 27 35 32 0 6 12 10
26 10 14 0 23 4 19 9 -3 5 -1 12 5 16 16 10 2 25 -23 25 -20 0 -20 0 -2 14 11
8 23 12 27 10 4 -2 13 4 20 14 7 11 17 19 21 20 5 0 20 9 33 21 13 12 29 21
36 21 6 0 8 3 5 7 -4 3 -1 13 6 21 10 13 9 14 -3 8 -13 -8 -13 -7 0 7 10 10
35 17 70 18 42 1 59 7 72 23 17 21 18 20 18 -19 0 -30 3 -36 10 -25 8 12 10 9
10 -12 0 -18 5 -28 15 -28 11 0 14 8 9 35 -6 42 15 69 54 70 16 0 26 6 28 18
2 15 -13 22 -38 18 -4 0 -5 6 -2 14 4 8 10 15 16 15 5 0 6 5 3 10 -3 6 5 10
19 10 14 0 28 5 31 11 4 6 27 9 56 6 28 -3 47 -1 43 4 -3 5 0 9 6 9 6 0 8 5 4
12 -4 7 -3 8 4 4 7 -4 23 -13 37 -20 l24 -13 -20 -21 c-11 -12 -17 -22 -14
-22 4 0 -1 -7 -9 -16 -9 -8 -16 -22 -16 -30 0 -8 -4 -14 -10 -14 -5 0 -10 -9
-10 -21 0 -11 -4 -17 -10 -14 -5 3 -10 0 -10 -9 0 -17 -18 -25 -42 -18 -25 6
-23 42 1 42 24 0 32 12 21 30 -10 16 -40 23 -40 9 0 -6 -4 -7 -10 -4 -5 3 -12
-6 -16 -20 -3 -14 -10 -25 -14 -25 -11 0 1 -42 16 -57 15 -15 84 -17 84 -3 0
6 7 10 15 10 8 0 15 4 15 9 0 5 8 17 17 27 10 9 18 24 20 33 1 8 9 21 17 27 9
6 12 15 8 19 -4 5 -1 5 6 1 8 -5 12 0 12 13 0 12 11 24 30 33 17 7 30 17 30
21 0 9 52 6 60 -4 3 -4 21 -10 40 -13 23 -5 30 -4 21 2 -18 13 -5 33 17 25 23
-9 42 -29 35 -37 -10 -10 -35 -7 -29 3 4 5 -5 4 -18 -2 -16 -8 -21 -14 -13
-19 8 -5 6 -8 -5 -8 -9 0 -19 4 -23 9 -6 11 -85 10 -85 -1 0 -5 -5 -8 -11 -8
-5 0 -7 6 -3 13 4 6 -11 -4 -33 -23 -24 -20 -39 -41 -37 -51 2 -8 -5 -25 -15
-36 -11 -11 -17 -24 -14 -27 4 -3 2 -6 -3 -6 -5 0 -11 -10 -12 -22 -3 -29 8
-92 14 -85 3 3 17 -1 30 -8 31 -16 60 -9 78 17 10 14 15 16 19 6 5 -11 7 6 7
40 0 9 -32 10 -45 1 -17 -12 -17 41 -1 57 8 8 22 14 30 14 9 0 16 5 16 10 0 6
18 10 40 10 25 0 40 -5 40 -12 0 -9 4 -8 10 2 9 13 10 13 10 0 0 -11 2 -12 8
-2 6 9 13 8 28 -5 29 -26 43 -26 39 -1 -4 21 -43 55 -58 50 -5 -1 -6 2 -2 8 4
6 -5 10 -21 10 l-27 0 23 20 c21 18 23 18 45 2 28 -20 55 -73 55 -107 0 -14 5
-25 11 -25 5 0 8 -4 5 -8 -3 -5 1 -9 9 -9 8 0 12 4 9 9 -3 4 4 8 15 8 10 0 22
-6 24 -12 3 -7 8 2 12 20 4 17 12 32 17 32 5 0 6 -4 3 -10 -3 -5 -2 -10 3 -10
5 0 23 -13 40 -29 33 -32 95 -50 85 -25 -3 8 -9 14 -14 14 -5 0 -9 5 -9 10 0
22 19 8 34 -25 21 -43 44 -38 38 8 -3 18 -2 29 2 26 3 -3 7 -25 9 -50 1 -24 6
-50 11 -57 12 -20 31 -9 31 18 0 13 6 25 13 28 7 2 12 0 11 -5 -4 -22 2 -54 9
-49 4 2 8 -25 9 -60 1 -47 -3 -67 -13 -71 -10 -4 -11 -10 -3 -24 9 -17 12 -18
24 -5 8 8 15 22 15 30 0 9 5 16 10 16 9 0 14 -23 13 -57 -1 -7 3 -10 8 -7 5 3
9 -5 9 -18 0 -13 6 -30 13 -37 10 -11 9 -12 -3 -6 -12 7 -13 6 -3 -6 7 -8 14
-33 17 -54 2 -22 5 -40 6 -40 1 0 3 -18 6 -39 2 -22 9 -45 15 -50 9 -8 10 -8
6 0 -4 7 -1 14 7 17 10 4 11 17 6 51 -4 25 -4 46 -1 46 3 0 -1 5 -9 10 -13 9
-13 10 0 10 11 0 12 2 3 8 -7 4 -13 24 -15 45 -1 20 -6 37 -10 37 -4 0 -4 7
-1 17 4 10 2 14 -5 9 -6 -4 -10 1 -9 13 1 19 2 19 29 -1 16 -11 25 -25 22 -31
-4 -7 -4 -9 1 -5 9 8 35 -15 35 -31 0 -6 4 -11 9 -11 5 0 20 -25 35 -55 18
-39 30 -53 41 -49 17 7 20 24 4 24 -5 0 -8 4 -5 8 3 5 -6 27 -20 51 -13 24
-24 50 -24 59 0 8 -3 12 -6 9 -7 -7 -74 61 -74 75 0 4 -8 8 -17 8 -9 0 -14 3
-11 6 4 3 -3 15 -14 26 -11 11 -16 23 -11 27 11 7 10 71 -1 89 -4 7 -5 16 -2
19 3 3 2 11 -3 17 -5 6 -11 22 -13 36 -1 14 -15 37 -30 52 -16 14 -28 33 -28
42 0 9 -3 15 -7 14 -16 -3 -43 15 -36 25 3 5 2 7 -4 4 -5 -3 -20 1 -32 10 -18
12 -20 17 -10 24 9 6 1 9 -24 9 -21 0 -36 3 -33 8 2 4 -6 12 -19 18 -16 8 -22
8 -20 0 10 -38 18 -56 26 -56 5 0 9 -14 9 -31 0 -16 3 -28 8 -26 4 3 7 -8 7
-24 1 -27 0 -28 -20 -11 -29 25 -35 34 -35 60 0 13 -4 20 -10 17 -5 -3 -10 3
-10 15 0 24 -19 47 -41 50 -32 5 -49 -1 -49 -16 0 -8 4 -12 10 -9 14 8 63 -43
57 -59 -3 -8 1 -25 8 -39 7 -14 10 -28 7 -32 -4 -3 1 -3 11 1 9 3 17 1 17 -4
0 -6 8 -12 18 -15 15 -4 15 -5 -2 -12 -13 -6 -21 -4 -24 3 -2 7 -8 12 -12 12
-5 0 -21 12 -35 26 -22 22 -31 43 -34 77 -1 5 -6 5 -13 1 -6 -4 -8 -3 -5 3 12
19 -17 58 -45 61 -23 3 -27 0 -21 -14 4 -12 3 -15 -5 -10 -7 4 -12 14 -12 23
0 19 -39 55 -52 47 -4 -3 -7 0 -6 7 2 8 -11 12 -37 13 -22 1 -59 12 -83 25
-24 12 -49 20 -55 18 -7 -2 -20 0 -29 5 -10 5 -18 5 -18 1z m19 -45 c11 -10
13 -10 7 0 -4 7 -1 12 8 12 9 0 16 -5 16 -11 0 -5 5 -7 10 -4 6 3 10 1 10 -5
0 -6 5 -8 12 -4 7 4 8 3 4 -4 -10 -17 -73 -15 -83 2 -4 8 -17 16 -28 19 -16 4
-15 5 6 6 14 0 31 -5 38 -11z m324 -166 c0 -56 -3 -72 -17 -72 -10 0 -13 8
-10 26 3 18 1 23 -7 18 -8 -5 -10 2 -7 25 2 17 1 31 -4 31 -5 0 -4 9 3 21 l11
21 15 -22 c8 -12 15 -34 16 -48z m224 -29 c-3 -10 -5 -4 -5 12 0 17 2 24 5 18
2 -7 2 -21 0 -30z m73 -23 c0 -11 4 -20 8 -20 4 0 8 -9 9 -20 1 -11 -2 -20 -8
-20 -5 0 -9 5 -9 10 0 6 -9 10 -20 10 -15 0 -20 7 -20 25 0 19 4 23 17 18 11
-4 14 -3 9 5 -4 7 -2 12 3 12 6 0 11 -9 11 -20z m-1195 -10 c-7 -12 -32 -13
-39 -2 -2 4 7 9 20 10 15 1 22 -2 19 -8z m1105 -20 c0 -5 -2 -10 -4 -10 -3 0
-8 5 -11 10 -3 6 -1 10 4 10 6 0 11 -4 11 -10z m-560 -20 c-11 -7 -11 -10 -2
-10 7 0 11 -4 8 -9 -4 -5 -1 -11 6 -13 7 -3 5 -7 -6 -11 -10 -4 -15 -3 -11 3
3 6 2 10 -4 10 -7 0 -8 16 -2 38 1 1 7 2 14 2 8 0 7 -4 -3 -10z m714 -80 c12
-26 12 -32 1 -44 -8 -7 -11 -17 -7 -21 4 -5 2 -5 -4 -2 -10 6 -19 97 -10 97 3
0 11 -14 20 -30z m-1379 -39 c-3 -6 -14 -10 -23 -10 -15 1 -15 2 1 6 9 2 17 9
17 15 0 6 3 9 6 5 3 -3 3 -10 -1 -16z m-35 -29 c0 -5 -11 -15 -25 -22 -13 -7
-22 -17 -19 -22 3 -4 -1 -8 -10 -8 -8 0 -17 -6 -19 -12 -3 -7 -6 -3 -6 10 -1
13 3 20 9 17 6 -3 10 1 10 9 0 9 3 15 8 15 19 -3 33 2 27 11 -3 6 1 10 9 10 9
0 16 -4 16 -8z m-36 -96 c-10 -8 -21 -12 -24 -10 -5 6 21 24 34 24 6 0 1 -6
-10 -14z m618 -368 c-6 -6 -8 3 -7 24 4 44 7 49 12 14 3 -16 0 -33 -5 -38z
m-628 26 c3 -8 2 -12 -4 -9 -6 3 -10 10 -10 16 0 14 7 11 14 -7z m1299 -11
c-7 -3 -13 -9 -13 -14 0 -6 -9 -20 -20 -31 -13 -15 -19 -32 -17 -52 4 -30 3
-31 -42 -33 -25 -2 -47 -7 -49 -13 -6 -18 -20 0 -15 19 3 13 12 18 24 16 10
-2 19 1 19 7 0 6 3 9 6 5 8 -8 63 46 57 56 -2 4 1 7 6 7 6 0 11 5 11 11 0 14
33 40 40 32 3 -3 -1 -8 -7 -10z m177 11 c0 -3 -6 -12 -14 -19 -17 -18 -29 -8
-13 11 12 14 27 18 27 8z m-990 -51 c0 -39 -8 -40 -15 -3 -4 22 1 40 11 40 2
0 4 -16 4 -37z m296 22 c-4 -24 -16 -30 -16 -7 0 12 4 22 9 22 5 0 8 -7 7 -15z
m-206 -19 c0 -23 -16 -27 -17 -5 -1 10 2 19 8 19 5 0 9 -6 9 -14z m755 4 c3
-5 1 -10 -4 -10 -6 0 -11 5 -11 10 0 6 2 10 4 10 3 0 8 -4 11 -10z m-711 -6
c-6 -3 -10 -18 -8 -34 2 -17 -1 -30 -6 -30 -11 0 -14 53 -3 63 3 4 11 7 17 6
8 0 7 -2 0 -5z m874 -5 c-10 -5 -18 -18 -18 -29 0 -16 -8 -18 -38 -11 -8 2 52
51 62 51 6 0 3 -5 -6 -11z m-125 -36 c-5 -13 -2 -15 13 -9 13 5 16 4 9 -3 -6
-6 -30 -12 -55 -15 -25 -2 -49 -6 -55 -7 -10 -4 -15 3 -15 20 0 4 18 7 39 6
32 -2 40 2 45 17 2 11 9 17 15 14 6 -4 7 -14 4 -23z m172 7 c3 -5 1 -10 -4
-10 -6 0 -11 5 -11 10 0 6 2 10 4 10 3 0 8 -4 11 -10z m-1115 -25 c0 -14 -4
-25 -8 -25 -4 0 -8 11 -8 25 0 14 4 25 8 25 4 0 8 -11 8 -25z m337 19 c-3 -3
-12 -4 -19 -1 -8 3 -5 6 6 6 11 1 17 -2 13 -5z m-792 -14 c-3 -5 -2 -10 3 -10
5 0 9 -7 9 -15 0 -8 -4 -15 -9 -15 -4 0 -8 7 -8 15 0 8 -6 15 -12 15 -9 0 -8
4 2 10 19 12 23 12 15 0z m-60 -14 c8 -7 11 -16 8 -20 -4 -3 0 -6 8 -6 24 0
20 -37 -4 -45 -38 -12 -51 -15 -84 -17 -18 0 -30 -5 -27 -10 3 -4 0 -8 -5 -8
-6 0 -11 18 -11 41 0 24 4 38 10 34 6 -3 10 1 10 9 0 9 7 16 16 16 8 0 13 4
10 8 -9 14 55 13 69 -2z m855 10 c0 -3 -4 -8 -10 -11 -5 -3 -10 -1 -10 4 0 6
5 11 10 11 6 0 10 -2 10 -4z m762 -35 c26 -1 27 -3 16 -26 -8 -18 -8 -28 1
-39 8 -10 8 -15 1 -18 -7 -2 -5 -11 5 -23 9 -11 13 -14 9 -6 -5 9 -3 12 4 7 8
-4 9 -18 5 -34 -4 -15 -6 -35 -5 -44 0 -10 -4 -18 -9 -18 -6 0 -9 -6 -6 -12 2
-7 0 -26 -5 -43 -5 -16 -11 -41 -13 -55 -2 -14 -6 -41 -10 -60 -4 -19 -8 -40
-9 -47 -1 -7 -5 -16 -9 -19 -4 -4 -7 -12 -7 -18 0 -6 5 -4 10 4 5 8 10 10 10
4 0 -6 -3 -14 -7 -18 -5 -4 -8 -13 -8 -19 0 -16 -174 -22 -189 -7 -5 5 -27 10
-48 10 -21 0 -38 5 -38 10 0 6 -7 10 -15 10 -28 0 -105 92 -105 124 0 9 -7 19
-16 23 -13 5 -13 7 -2 14 8 6 9 9 1 9 -6 0 -10 13 -9 29 1 17 -1 28 -5 25 -10
-6 -19 22 -14 47 6 30 15 37 15 11 0 -23 14 -30 25 -13 3 6 19 8 35 6 17 -2
30 1 30 7 0 6 3 9 6 5 11 -11 34 21 34 48 0 23 3 25 35 22 20 -3 38 -7 42 -11
3 -3 13 0 21 7 13 9 14 9 8 0 -7 -13 -4 -14 32 -17 11 0 26 -7 36 -15 9 -8 19
-11 22 -8 4 3 18 -5 32 -19 15 -13 32 -24 39 -24 15 0 8 38 -12 60 -8 9 -12
20 -8 25 5 4 2 5 -4 1 -9 -5 -13 -1 -13 11 0 14 -2 15 -9 4 -7 -11 -10 -9 -16
8 -3 11 -12 21 -20 21 -7 0 -15 5 -17 10 -2 6 -20 12 -41 14 -21 2 -41 7 -45
12 -4 4 1 4 11 1 11 -4 17 -1 17 8 0 17 75 23 212 16z m198 -12 c0 -5 5 -9 11
-9 5 0 7 6 3 13 -6 10 -4 10 7 0 7 -7 27 -13 44 -13 16 0 39 -7 49 -15 10 -8
23 -12 29 -8 6 3 7 1 3 -5 -4 -7 -1 -12 8 -12 9 0 14 -8 13 -20 -1 -11 -5 -20
-9 -20 -4 0 -8 -11 -8 -24 0 -13 -4 -26 -10 -28 -5 -1 -11 -15 -12 -30 -1 -15
-6 -24 -10 -22 -4 3 -8 -6 -8 -20 0 -14 -4 -26 -10 -26 -5 0 -10 -16 -10 -36
0 -21 -4 -33 -10 -29 -10 6 -13 -3 -13 -37 0 -9 -5 -16 -11 -15 -6 1 -10 -6
-8 -15 1 -10 -4 -28 -13 -41 -8 -13 -12 -27 -8 -30 3 -4 -1 -7 -11 -7 -10 0
-14 -5 -10 -11 4 -7 -1 -7 -16 1 -15 8 -20 8 -16 1 5 -7 -9 -11 -42 -11 -27 0
-52 -3 -55 -7 -4 -3 -18 -8 -32 -9 -23 -2 -30 8 -27 37 1 4 2 23 4 43 1 20 5
36 8 36 3 0 6 19 7 42 2 23 9 45 15 50 10 6 9 8 -2 8 -12 0 -12 2 -2 8 7 5 13
29 14 56 0 31 4 43 9 35 6 -9 9 3 9 34 0 30 4 47 12 47 9 0 9 3 0 12 -7 7 -12
25 -12 40 0 15 -4 28 -10 28 -20 0 -9 19 13 22 38 5 117 -3 117 -13z m-1700
-19 c0 -5 -2 -10 -4 -10 -3 0 -8 5 -11 10 -3 6 -1 10 4 10 6 0 11 -4 11 -10z
m485 -19 c4 -7 -10 -11 -39 -11 -25 0 -46 -4 -46 -10 0 -5 -9 -10 -20 -10 -11
0 -20 -4 -20 -10 0 -5 -7 -10 -15 -10 -8 0 -15 -4 -15 -10 0 -5 -9 -10 -21
-10 -11 0 -17 -4 -14 -10 3 -5 -1 -10 -9 -10 -17 0 -56 -30 -56 -42 0 -5 14
-7 30 -6 17 1 30 6 30 10 0 4 7 8 15 8 8 0 15 4 15 8 0 5 7 9 15 9 8 0 11 -5
8 -11 -4 -5 -7 -24 -7 -41 -1 -28 -3 -30 -33 -27 -17 2 -34 -1 -38 -7 -3 -6
-1 -11 5 -11 6 0 8 -5 5 -10 -4 -7 36 -10 124 -9 72 0 134 5 137 10 3 5 17 9
31 9 20 0 24 4 19 18 -5 14 -4 14 9 -2 13 -18 15 -18 15 -3 0 24 -26 32 -47
16 -14 -12 -16 -12 -8 1 6 12 5 13 -6 3 -20 -20 -36 -15 -41 10 -6 30 1 49 14
41 6 -4 8 -3 5 3 -4 6 0 19 8 29 8 10 15 14 15 7 0 -6 8 -10 19 -8 10 2 29 -2
42 -9 13 -7 26 -12 29 -13 19 -1 50 -16 50 -24 0 -5 7 -9 15 -9 8 0 15 -7 15
-16 0 -8 5 -12 11 -8 6 3 4 -5 -5 -18 -9 -14 -13 -28 -9 -31 3 -4 1 -7 -5 -7
-7 0 -12 -7 -12 -15 0 -9 -7 -18 -15 -21 -8 -4 -15 -14 -15 -23 0 -10 -8 -26
-17 -37 -10 -11 -19 -26 -21 -33 -1 -7 -9 -20 -17 -28 -9 -8 -20 -23 -25 -34
-6 -10 -21 -19 -33 -19 -13 0 -29 -6 -35 -12 -10 -10 -15 -10 -22 2 -5 8 -10
10 -10 4 0 -8 -35 -12 -107 -14 -143 -2 -155 -2 -247 -1 -73 1 -78 2 -73 21 3
11 1 20 -4 20 -4 0 -5 7 -2 17 4 9 2 14 -3 11 -5 -4 -10 23 -12 60 -1 36 -8
72 -14 79 -8 10 -7 13 3 13 9 0 10 3 3 8 -5 4 -11 29 -13 57 -2 27 -5 53 -7
57 -8 12 -14 51 -7 45 3 -4 14 -2 24 3 10 6 29 11 43 12 15 1 26 6 26 10 0 4
15 8 33 8 18 0 39 6 46 13 11 10 13 10 7 0 -4 -7 -3 -13 3 -13 5 0 11 4 13 9
2 6 22 11 46 12 23 2 42 6 42 9 0 11 188 12 195 1z m77 -6 c5 -6 8 -5 8 3 0 6
5 12 11 12 5 0 8 -4 5 -8 -3 -5 1 -9 9 -9 8 0 12 4 9 9 -8 12 10 10 24 -4 9
-9 12 -9 12 2 0 11 3 11 12 2 7 -7 24 -12 39 -12 44 0 45 -20 2 -21 -21 -1
-41 -1 -45 0 -4 0 -41 1 -82 3 -41 1 -73 5 -70 10 3 4 12 8 20 8 8 0 13 4 10
9 -8 12 27 8 36 -4z m663 -15 c3 -6 -1 -7 -9 -4 -18 7 -21 14 -7 14 6 0 13 -4
16 -10z m79 2 c2 -4 -11 -9 -30 -10 -19 -2 -34 2 -34 8 0 12 56 14 64 2z
m-868 -56 c-12 -18 -41 -24 -55 -11 -8 9 26 33 47 33 21 0 22 -2 8 -22z m34
-54 c-9 -3 -9 -7 1 -13 10 -6 11 -9 2 -9 -7 0 -13 -7 -13 -16 0 -8 -5 -12 -10
-9 -7 4 -8 11 -1 18 12 16 12 29 -2 46 -9 11 -9 13 0 8 6 -4 15 -2 20 5 5 9 9
8 11 -7 3 -10 -1 -21 -8 -23z m-82 -822 c7 -12 17 -18 22 -15 6 3 10 2 10 -3
0 -6 46 -58 103 -116 99 -102 104 -106 146 -106 23 0 52 5 63 11 15 8 19 8 14
0 -4 -6 -2 -11 3 -11 6 0 11 5 11 10 0 6 23 10 50 10 47 0 49 -1 38 -20 -9
-14 -14 -16 -20 -7 -5 8 -8 5 -8 -8 0 -11 -9 -27 -20 -35 -11 -8 -20 -23 -20
-33 0 -10 -4 -15 -10 -12 -5 3 -10 -1 -10 -9 0 -8 -6 -19 -14 -23 -14 -8 -16
-12 -16 -34 0 -5 -4 -7 -10 -4 -5 3 -10 0 -10 -8 0 -8 -17 -40 -38 -73 -20
-32 -43 -71 -51 -87 -8 -15 -21 -27 -28 -27 -8 0 -12 -4 -8 -9 3 -6 -4 -8 -15
-6 -11 2 -20 0 -20 -5 0 -5 -11 -12 -25 -16 -14 -3 -25 -10 -25 -15 0 -5 -7
-9 -15 -9 -8 0 -15 -4 -15 -10 0 -5 -5 -10 -11 -10 -13 0 -59 -50 -59 -63 0
-5 -4 -5 -10 -2 -5 3 -10 0 -10 -8 0 -8 -8 -21 -17 -30 -16 -13 -20 -13 -31
-1 -10 11 -10 14 0 14 9 0 9 3 -2 10 -8 5 -10 10 -4 10 6 0 11 10 11 23 1 75
3 88 16 81 8 -6 8 -3 -2 9 -8 10 -10 24 -5 34 11 26 11 37 -1 45 -6 5 -5 8 4
8 10 0 11 3 2 14 -9 11 -9 16 0 21 8 6 8 10 -2 15 -10 7 -10 11 0 24 11 13 11
16 0 16 -11 0 -11 2 1 10 13 9 13 10 0 10 -10 0 -11 3 -4 8 15 10 15 293 0
285 -6 -4 -4 2 4 12 9 11 10 16 3 11 -7 -4 -13 -2 -13 3 0 6 4 11 8 11 8 0 9
50 2 58 -7 7 -5 29 3 40 6 8 5 12 -4 12 -11 0 -11 2 1 10 21 13 23 13 38 -10z
m-60 -95 c-10 -7 -13 -43 -12 -137 1 -118 -1 -128 -18 -128 -10 0 -18 4 -18 8
0 5 -14 9 -31 10 -17 0 -37 6 -44 12 -8 7 -20 8 -27 4 -17 -11 -59 -13 -53 -3
6 9 -22 6 -31 -4 -4 -4 -22 -7 -40 -7 -18 0 -36 -4 -39 -10 -3 -5 -15 -10 -26
-10 -11 0 -22 -7 -26 -16 -3 -8 -12 -13 -20 -10 -7 3 -16 -1 -19 -9 -4 -8 -10
-15 -16 -15 -5 0 -16 -7 -24 -15 -25 -25 -35 -17 -29 23 3 20 6 43 7 49 1 7
14 18 30 25 15 7 28 16 28 20 0 5 9 8 20 8 11 0 20 5 20 10 0 6 9 10 20 10 11
0 20 5 20 10 0 6 9 10 20 10 11 0 20 4 20 8 0 7 63 34 75 32 3 0 12 6 21 14 8
8 21 13 30 9 9 -3 14 0 12 8 -2 8 4 14 12 14 8 0 32 17 54 37 21 21 42 35 47
32 5 -3 9 -2 8 3 -3 15 1 19 22 19 16 0 17 -3 7 -11z m654 -163 c5 -2 6 -7 3
-12 -3 -5 1 -14 8 -22 7 -7 28 -38 47 -68 19 -30 37 -57 40 -60 4 -3 9 -13 13
-23 4 -11 12 -15 18 -11 7 4 9 3 6 -4 -10 -15 3 -43 16 -35 5 3 7 1 3 -5 -3
-6 1 -17 9 -26 9 -8 16 -18 15 -21 -1 -20 1 -26 8 -21 5 3 9 0 9 -7 1 -7 2
-33 4 -59 1 -31 6 -45 13 -41 6 4 5 -1 -3 -11 -13 -15 -13 -19 0 -27 11 -7 11
-9 0 -9 -8 0 -11 -7 -8 -20 3 -10 -1 -24 -9 -31 -11 -9 -14 -8 -14 5 0 9 -4
16 -10 16 -5 0 -10 7 -10 15 0 8 -6 15 -14 15 -8 0 -18 9 -21 20 -3 11 -12 20
-18 20 -7 0 -19 9 -27 20 -8 11 -19 20 -25 20 -7 0 -22 11 -35 25 -12 13 -25
24 -29 23 -20 -2 -31 4 -25 14 4 7 3 8 -5 4 -6 -4 -17 -3 -24 3 -15 11 -62 23
-94 23 -13 0 -21 3 -18 7 5 9 -26 8 -40 -1 -9 -6 -60 -11 -78 -9 -10 1 34 81
45 81 4 0 8 9 8 20 0 11 5 20 10 20 6 0 10 7 10 15 0 8 5 15 10 15 6 0 10 7
10 15 0 8 5 15 10 15 6 0 10 7 10 15 0 8 5 15 10 15 6 0 10 5 10 10 0 6 11 23
24 38 14 15 33 37 44 50 11 12 24 22 31 22 6 0 11 5 11 11 0 7 10 -1 22 -17
13 -16 26 -31 30 -32z m218 -522 c0 -5 -4 -10 -10 -10 -5 0 -10 5 -10 10 0 6
5 10 10 10 6 0 10 -4 10 -10z"/>
<path d="M1950 1914 c0 -8 8 -14 18 -14 10 0 24 -6 31 -12 11 -10 13 -10 7 0
-9 15 27 16 56 1 16 -9 19 -8 12 3 -6 10 -5 11 7 1 12 -10 18 -10 29 0 7 6 10
7 7 2 -3 -6 19 -11 59 -12 37 -2 64 2 64 7 0 6 -6 10 -12 10 -9 0 -8 4 2 10
12 8 10 10 -10 9 -14 0 -80 2 -147 5 -102 4 -123 2 -123 -10z"/>
<path d="M1837 1597 c-26 -28 -51 -47 -55 -42 -7 10 -24 16 -54 18 -10 1 -18
4 -18 7 0 3 -29 6 -65 8 -53 2 -65 -1 -65 -13 0 -8 7 -16 15 -16 23 -2 29 -4
42 -12 6 -4 14 -3 18 3 4 7 12 7 25 0 10 -5 30 -10 45 -10 14 0 24 -4 21 -8
-3 -5 13 -9 34 -10 29 -2 42 2 53 18 7 11 17 17 20 13 4 -3 7 1 7 9 0 9 7 19
16 22 8 3 12 11 9 16 -4 6 -1 9 7 8 15 -3 18 34 3 38 -5 1 -32 -21 -58 -49z"/>
<path d="M1539 1629 c-8 -5 -10 -9 -6 -9 4 0 3 -8 -2 -18 -7 -14 -6 -25 6 -41
19 -28 34 -16 35 27 1 17 5 29 10 26 4 -3 8 -1 8 4 0 14 -35 21 -51 11z"/>
<path d="M1080 1480 c0 -31 6 -62 13 -69 10 -11 9 -12 -2 -6 -9 5 -7 -1 5 -17
16 -22 20 -23 33 -11 9 10 11 17 4 21 -6 4 -9 15 -7 24 1 10 -2 20 -7 24 -5 3
-9 15 -9 28 0 12 -7 31 -15 42 -13 17 -14 14 -15 -36z"/>
<path d="M2137 1524 c-4 -4 -7 -14 -7 -22 0 -17 -49 -62 -67 -62 -7 0 -13 -4
-13 -10 0 -5 -9 -10 -19 -10 -11 0 -21 -5 -23 -11 -2 -6 -18 -12 -35 -12 -17
-1 -29 -5 -27 -9 3 -5 -3 -8 -13 -9 -10 0 -38 -2 -63 -4 -24 -1 -66 3 -93 10
-38 10 -55 10 -85 0 -35 -12 -62 -10 -62 4 0 4 -30 8 -67 9 -37 1 -71 6 -76
11 -6 6 -19 6 -34 0 -16 -6 -22 -5 -18 1 4 6 -13 10 -44 10 -27 0 -53 5 -56
10 -3 6 -12 10 -18 10 -7 0 -6 -4 3 -10 12 -7 10 -9 -7 -7 -12 0 -19 5 -17 9
7 11 -113 4 -123 -7 -4 -4 -2 -5 5 -1 6 4 12 3 12 -2 0 -6 9 -8 20 -5 11 3 20
1 20 -5 0 -6 8 -9 17 -8 10 2 23 -3 30 -10 7 -7 17 -14 23 -16 6 -2 12 -13 13
-25 0 -12 5 -19 9 -17 4 3 8 -2 8 -10 0 -9 7 -16 15 -16 8 0 15 -4 15 -10 0
-5 9 -10 19 -10 11 0 21 -4 23 -9 2 -5 10 -11 18 -13 8 -2 21 -9 28 -16 8 -7
18 -10 23 -7 5 4 9 1 9 -4 0 -6 7 -11 15 -11 8 0 15 -4 15 -10 0 -5 9 -10 19
-10 11 0 22 -4 25 -9 3 -5 22 -12 41 -15 20 -4 33 -10 31 -15 -10 -15 158 -6
189 11 17 9 45 24 63 33 17 10 32 21 32 26 0 5 8 9 18 9 10 0 24 9 32 20 8 11
23 20 33 20 10 0 15 5 12 10 -3 6 -1 10 5 10 17 0 42 28 35 40 -7 12 49 72 59
63 3 -3 8 2 12 11 4 9 17 16 35 16 25 0 28 3 26 29 -1 16 -4 27 -6 25 -3 -3
-10 5 -16 16 -6 11 -14 17 -18 14z m-657 -153 c36 -1 68 -8 73 -14 6 -9 10 -9
14 1 4 10 8 10 19 1 7 -6 21 -9 29 -5 9 3 15 0 15 -9 0 -10 9 -12 33 -9 17 3
38 6 45 6 6 1 12 4 12 8 0 9 59 -1 66 -11 3 -5 11 -9 17 -9 7 0 6 4 -3 10 -11
7 -7 8 15 6 17 -1 36 2 44 8 12 9 12 8 1 -11 -8 -12 -21 -24 -30 -26 -26 -7
-290 -5 -290 2 0 6 -9 8 -64 13 -14 1 -23 5 -21 9 3 4 -8 9 -24 12 -16 3 -31
14 -35 23 -5 12 -3 14 6 7 7 -5 42 -10 78 -12z m473 -59 c-10 -11 -21 -17 -25
-15 -5 2 -8 -1 -8 -8 0 -8 -5 -7 -17 2 -12 10 -15 10 -9 1 9 -15 -16 -42 -38
-42 -9 0 -16 -4 -16 -10 0 -5 -7 -10 -15 -10 -8 0 -15 -4 -15 -10 0 -5 -9 -10
-20 -10 -11 0 -20 -6 -20 -12 0 -9 -4 -8 -10 2 -8 12 -10 12 -10 1 0 -11 -3
-11 -17 0 -15 12 -16 12 -8 -1 8 -13 7 -13 -8 -1 -9 7 -17 9 -17 4 0 -5 -7
-10 -15 -10 -8 0 -15 4 -15 9 0 4 -3 7 -7 7 -27 -4 -63 3 -58 11 4 6 -7 10
-25 10 -18 0 -29 4 -25 10 4 6 -5 10 -19 10 -14 0 -26 5 -26 10 0 6 -7 10 -15
10 -8 0 -15 5 -15 11 0 5 -4 8 -8 5 -5 -3 -9 2 -9 10 0 10 4 11 11 4 5 -5 22
-10 36 -10 14 0 32 -6 39 -12 8 -7 11 -8 8 -2 -3 6 0 11 8 11 8 0 12 -3 10 -7
-2 -4 45 -8 104 -9 74 -1 111 2 116 10 6 8 10 8 16 -2 6 -10 9 -11 9 -1 0 6 8
12 18 12 9 0 40 9 67 19 64 25 69 25 48 3z"/>
<path d="M2221 1513 c4 -23 -2 -43 -11 -38 -6 4 -10 3 -9 -2 4 -21 -2 -43 -15
-56 -8 -8 -13 -26 -12 -40 2 -15 -1 -24 -5 -21 -5 3 -9 -1 -9 -8 0 -8 9 -14
20 -14 12 0 20 7 20 16 0 9 3 20 8 24 7 8 8 13 11 42 0 8 5 13 9 10 4 -2 9 7
10 22 1 15 7 29 12 30 15 6 12 16 -10 30 -11 7 -20 9 -19 5z"/>
</g>
</svg>
